<svg xmlns="http://www.w3.org/2000/svg" xmlns:xlink="http://www.w3.org/1999/xlink" viewBox="0 0 461.61 70.98"><defs><style>.cls-1{fill:url(#linear-gradient);}</style><linearGradient id="linear-gradient" x1="-249.6" y1="761.29" x2="-651.69" y2="767.08" gradientTransform="matrix(1, 0, 0, -1, 655.91, 800.08)" gradientUnits="userSpaceOnUse"><stop offset="0" stop-color="#efb310"/><stop offset="0.09" stop-color="#eea816"/><stop offset="0.25" stop-color="#eb8a25"/><stop offset="0.45" stop-color="#e65a3d"/><stop offset="0.7" stop-color="#e0185e"/><stop offset="0.72" stop-color="#df1162"/><stop offset="0.78" stop-color="#cc0e52"/><stop offset="0.93" stop-color="#a50730"/><stop offset="1" stop-color="#960423"/></linearGradient></defs><title>AthleticNet_Gradient</title><g id="Layer_2" data-name="Layer 2"><g id="Layer_1-2" data-name="Layer 1"><path class="cls-1" d="M125.71,30.88H120l2.8-14.3a1.78,1.78,0,0,0-2.6-1.9l-11.8,6.7a1.56,1.56,0,0,0-.6.8l-1.8,8.6h-4.1a1.19,1.19,0,0,0-1.2,1l-1.5,7.5a1.2,1.2,0,0,0,1.2,1.5h3.5l-2.6,12.5a37.36,37.36,0,0,0-1,5.9,9.12,9.12,0,0,0,2.5,6.2c1.6,1.9,4.4,2.8,8.3,2.8a69,69,0,0,0,8.4-.7,1.41,1.41,0,0,0,1.1-1l1.5-7.3a1.26,1.26,0,0,0-1.4-1.5,17.53,17.53,0,0,1-2.5.3c-2.2,0-3.3-.8-3.3-2.5a5.66,5.66,0,0,1,.3-1.8l2.7-12.9h6.3a1.19,1.19,0,0,0,1.2-1l1.6-7.5A1.28,1.28,0,0,0,125.71,30.88Zm72.7-28.8a1.69,1.69,0,0,0-2.5-1.8l-11.4,6.5a1.47,1.47,0,0,0-.5.6.37.37,0,0,0-.1.3l-12.3,58.1a1.2,1.2,0,0,0,1.2,1.5h11.5a1.19,1.19,0,0,0,1.2-1Zm134.2,40.1a13.53,13.53,0,0,0-5.6-8.7c-3.3-2.3-7.7-3.4-13.2-3.4-7.7,0-13.7,2.2-17.9,6.6a22.23,22.23,0,0,0-6.4,15.8c0,10.5,6.4,15.8,19.3,15.8,10.8,0,17.9-4.2,21.4-12.7a1.24,1.24,0,0,0-1-1.7l-10.6-1.1a1.28,1.28,0,0,0-1.3.7c-1.8,3.6-4.5,5.4-8,5.4a6.33,6.33,0,0,1-4.2-1.6,5.62,5.62,0,0,1-2-4.5,15.24,15.24,0,0,1,2.8-9,8.8,8.8,0,0,1,7.9-4.1c3.3,0,5.4,1.3,6.2,3.8a1.42,1.42,0,0,0,1.3.9l10.2-.6A1.51,1.51,0,0,0,332.61,42.18ZM289.11,17h-11.5a1.19,1.19,0,0,0-1.2,1l-1.5,7.1a1.2,1.2,0,0,0,1.2,1.5h11.4a1.19,1.19,0,0,0,1.2-1l1.5-7.1A1.1,1.1,0,0,0,289.11,17Zm-2.9,13.9h-11.5a1.19,1.19,0,0,0-1.2,1l-7.3,34a1.2,1.2,0,0,0,1.2,1.5h11.5a1.19,1.19,0,0,0,1.2-1l7.3-34A1.24,1.24,0,0,0,286.21,30.88Zm-20.6,0h-5.7l2.8-14.3a1.78,1.78,0,0,0-2.6-1.9l-11.8,6.7a1.56,1.56,0,0,0-.6.8l-1.8,8.6h-4.1a1.19,1.19,0,0,0-1.2,1l-1.5,7.5a1.2,1.2,0,0,0,1.2,1.5h3.5l-2.6,12.5a37.36,37.36,0,0,0-1,5.9,9.12,9.12,0,0,0,2.5,6.2c1.6,1.9,4.4,2.8,8.3,2.8a69,69,0,0,0,8.4-.7,1.41,1.41,0,0,0,1.1-1l1.5-7.3a1.26,1.26,0,0,0-1.4-1.5,17.53,17.53,0,0,1-2.5.3c-2.2,0-3.3-.8-3.3-2.5a5.66,5.66,0,0,1,.3-1.8l2.7-12.9h6.3a1.19,1.19,0,0,0,1.2-1l1.6-7.5A1.34,1.34,0,0,0,265.61,30.88Zm-43.2,13a5.14,5.14,0,0,0-1.7-4.2,5.85,5.85,0,0,0-4.1-1.4,6.74,6.74,0,0,0-4.7,1.9,12.86,12.86,0,0,0-3.3,5.8h12.8a1.06,1.06,0,0,0,1-.9Zm9.2-9.4a14.7,14.7,0,0,1,4.4,10.9,40.3,40.3,0,0,1-.7,6.3,1.19,1.19,0,0,1-1.2,1h-26.8c.4,4.9,2.6,7.3,6.6,7.3a7.54,7.54,0,0,0,6.1-2.8,1.19,1.19,0,0,1,1.1-.4l10.8,1a1.25,1.25,0,0,1,.9,2,19.07,19.07,0,0,1-6.9,6.1,28.25,28.25,0,0,1-12.4,2.4c-7.2,0-12.3-1.6-15.4-4.9a16.87,16.87,0,0,1-4.6-11.9,20.69,20.69,0,0,1,2.1-9.2,19.48,19.48,0,0,1,5.8-7.2,19.71,19.71,0,0,1,7.2-3.9,29.49,29.49,0,0,1,8.3-1C223.81,30.08,228.71,31.58,231.61,34.48ZM167,32.58a8.86,8.86,0,0,1,2.5,6.2,54.86,54.86,0,0,1-1.4,8.7l-4,18.9a1.19,1.19,0,0,1-1.2,1h-11.5a1.2,1.2,0,0,1-1.2-1.5l3.3-15.4a62.51,62.51,0,0,0,1.3-7.1c0-2-.9-3-2.8-3a6.75,6.75,0,0,0-5.4,2.9,20.61,20.61,0,0,0-3.5,8.4l-3.2,14.7a1.19,1.19,0,0,1-1.2,1h-11.5a1.2,1.2,0,0,1-1.2-1.5l12.4-58.1a.76.76,0,0,1,.2-.4,2.65,2.65,0,0,1,.5-.6l11.4-6.5a1.69,1.69,0,0,1,2.5,1.8l-6.3,33.1.1.1a17.33,17.33,0,0,1,13-5.3C162.91,30.08,165.31,30.88,167,32.58ZM66.41,16.68l-42.9,50.2a1.17,1.17,0,0,0,.9,1.9h12.3a2.61,2.61,0,0,0,2.1-1.1l33.4-44.4a1.83,1.83,0,0,1,2.9.1l19.5,26.1a.56.56,0,0,0,1-.3v-2.3a5.94,5.94,0,0,0-.7-2.6l-16.8-26.7A7.23,7.23,0,0,0,66.41,16.68Zm-1.3-2.3L19,67.68a2.81,2.81,0,0,1-2.1,1h-15a1.91,1.91,0,0,1-1.4-3.2l58.3-60.9a14.73,14.73,0,0,1,24,3.9l12.3,25.8a5.37,5.37,0,0,1,.5,2.1v3.2a.59.59,0,0,1-1.1.3l-14.7-24.3A9.11,9.11,0,0,0,65.11,14.38Zm374.7,25.8a1,1,0,0,1-1,.8h-7.9l-4.2,19.4a1,1,0,0,1-1,.8h-6.3a1.06,1.06,0,0,1-1-1.2l4.1-19h-7.1a1.06,1.06,0,0,1-1-1.2l1-4.6a1,1,0,0,1,1-.8h23.3a1.06,1.06,0,0,1,1,1.2Zm-30.6-.8a1,1,0,0,1-1,.8h-12.8l-.9,4.3h11.9a1.06,1.06,0,0,1,1,1.2l-.8,3.5a1,1,0,0,1-1,.8h-12.3l-1.1,5.2h13.5a1.06,1.06,0,0,1,1,1.2l-.9,4.1a1,1,0,0,1-1,.8h-21a1.06,1.06,0,0,1-1-1.2l5.3-24.8a1,1,0,0,1,1-.8H409a1.06,1.06,0,0,1,1,1.2Zm-34,21a1,1,0,0,1-1,.8h-6.3a.87.87,0,0,1-.9-.6l-6.4-15h-.1l-3.2,14.8a1,1,0,0,1-1,.8h-5.8a1.06,1.06,0,0,1-1-1.2l5.3-24.8a1,1,0,0,1,1-.8h6.3a.87.87,0,0,1,.9.6l6.3,15h.1l3.2-14.8a1,1,0,0,1,1-.8h5.8a1.06,1.06,0,0,1,1,1.2Zm83.7-38.7H336.31c-3.2-.1-3.9,1-3.8,2,0,.8,1.1,1.6,1.5,2a26.21,26.21,0,0,1,8.4,19.5,33,33,0,0,1-7.6,21.4,2.93,2.93,0,0,0-.8,1.6c-.2,1.2.4,2.8,3.1,2.8h96.3a3.53,3.53,0,0,0,2.6-1.5l25-43.3a2.78,2.78,0,0,0-2.1-4.5Z"/></g></g></svg>